<svg id="Layer_1" data-name="Layer 1" xmlns="http://www.w3.org/2000/svg" viewBox="0 0 455.65 266.23"><defs><style>.cls-1{fill:#f7f8f8;}.cls-2{fill:#1a3151;}.cls-3{fill:#0f1928;}.cls-4{fill:#9ea6ad;}.cls-5{fill:#fff;}.cls-6{fill:#5bbcb9;}.cls-7{fill:#458d8b;}.cls-8{fill:#195667;}.cls-9{fill:#ebceb2;}.cls-10{fill:#909497;}.cls-11{fill:#b5d6cb;}.cls-12{fill:#e2d0b5;}.cls-13{fill:#d1d0d1;}.cls-14{fill:#e2d0b6;}.cls-15{fill:#c9d7a2;}.cls-16{fill:#6b737f;}.cls-17{fill:#bc9268;}.cls-18{fill:#d1e7f5;}.cls-19{fill:#e2cfb5;}.cls-20{fill:#596880;}.cls-21{fill:#3cbaba;}.cls-22{fill:#35a09d;}.cls-23{fill:#0f3e4a;}.cls-24{fill:#ffd55a;}.cls-25{fill:#eabf56;}.cls-26{fill:#ececec;}.cls-27{fill:#666a6c;}.cls-28{fill:#e7e3d2;}.cls-29{fill:#e0e0e1;}.cls-30{fill:#cacccd;}.cls-31{fill:#c7c9c5;}.cls-32{fill:#b5b5b0;}.cls-33{fill:#d4d4d0;}.cls-34{fill:#8a8f93;}.cls-35{fill:#9ca1a4;}.cls-36{fill:#b6bcc2;}.cls-37{fill:#e5bc3b;}.cls-38{fill:#f2cc3f;}</style></defs><path class="cls-1" d="M205.28,232.93c-13.1,0-26.2.24-39.28,1.23-4.94.37-9.77,1.19-14.71,1.52-9.87.65-19.57,1.88-29.48,2.45-8,.46-16,.72-24,1.3A123.13,123.13,0,0,1,74.74,239c-5.48-.66-11-1-16.37-2.1a96.86,96.86,0,0,0-18.85-2c-9,0-17.68,0-26.25,2.15a30.48,30.48,0,0,0-9,3.51c-5.23,3.55-5.94,12.41-.72,16.09,8.79,6.2,27.56,8.63,39.89,8.75,13.51.12,26.63-.55,40.16-.95,12.57-.38,25.11-.9,37.7-.88,25.72,0,51.44,0,77.11-1.17,24.12-1.09,48.29-.72,72.46-.72,24.79,0,49.41.14,74,2.37,10.73,1,21.65,1.31,32.42,2,9.65.61,18.93,0,28.54-.58a94.25,94.25,0,0,0,23.42-4.25c5.81-1.87,16.15-7.71,17.93-12.19,5-12.57-70.32-12.27-81.88-12.24-12.94,0-26,.32-38.91,0a132.64,132.64,0,0,1-16.1-1.65c-5.28-.78-10.61-.58-16-.91C272,232.76,249.61,233,227.18,233,219.89,233,212.58,232.92,205.28,232.93Z"/><path class="cls-2" d="M308.31,159.92l4.41,84.39a4.25,4.25,0,0,0,4.25,4.1H369.1a4.25,4.25,0,0,0,4.25-4.1l4.41-84.39Z"/><rect class="cls-3" x="304.92" y="150.58" width="76.23" height="9.35"/><polygon class="cls-2" points="377.76 150.58 308.31 150.58 313.69 125.66 372.38 125.66 377.76 150.58"/><path class="cls-4" d="M362,145.93H324.1a3.49,3.49,0,0,1-3.49-3.49v-5.28a3.49,3.49,0,0,1,3.49-3.49H362a3.49,3.49,0,0,1,3.49,3.49v5.28a3.49,3.49,0,0,1-3.49,3.49"/><path class="cls-5" d="M353.34,205.15a1.58,1.58,0,0,0-.13-.36l-.52-.95Z"/><path class="cls-5" d="M343.68,192.49l2.42.72,3.12.93,2.42.72a1.52,1.52,0,0,0,1.92-1.16l.56-2.51c.2-.9.52-2.36.72-3.25l.56-2.52c.19-.89-.37-1.18-1.25-.65l-1.52.92c-.56-1-1.11-1.94-1.33-2.29-.49-.8-1.43-1.42-3.27-1.41l-7.31,0,3,5.48a1.05,1.05,0,0,1,.19.28c.15.3.7,1.33,1.25,2.36l-1.48.89c-.89.54-.91,1.18-.05,1.44"/><path class="cls-5" d="M335.22,183.86c-.78,1.22-2.77,4.46-2.77,4.46a1.54,1.54,0,0,0,.5,2.12l4.88,2.92a1.54,1.54,0,0,0,2.11-.54l3-5c.26-.45.58-.51.83-.25l-3-5.48H339a4,4,0,0,0-3.74,1.81"/><path class="cls-5" d="M326.6,204.36c.55,1.09,2.07,3.89,3.18,5.95l3.46-5.78c.4-.71,1.16-2,1.79-3.12l1.77,1c.89.52,1.45.21,1.23-.68l-.62-2.5-.8-3.23-.61-2.5a1.53,1.53,0,0,0-1.95-1.11l-2.4.79-3.11,1-2.4.78c-.85.28-.81.92.09,1.43l1.3.74c-.67,1.32-1.45,2.88-1.65,3.32-.36.81-.14,2.2.72,3.9"/><path class="cls-5" d="M333.24,204.53l-3.46,5.78,1.25,2.31c.36.71.89,2.1,4.18,2.08l4.8,0a1.54,1.54,0,0,0,1.51-1.57l0-5.79a1.55,1.55,0,0,0-1.53-1.55l-6.55,0c-.59,0-.67-.4-.46-.77l.29-.5"/><path class="cls-5" d="M353.34,205.15l2.85,5.83c1-1.88,2.7-5.15,3.39-6.57.93-1.89,1.19-3.53.76-4.39S357.8,195,357.8,195a1.38,1.38,0,0,0-2-.57L351,197.44a1.68,1.68,0,0,0-.56,2.18s1.48,2.7,2.29,4.22l.52.95a1.58,1.58,0,0,1,.13.36"/><path class="cls-5" d="M355.48,212.29c.12-.19.38-.67.71-1.31l-2.85-5.83c.06.34-.11.57-.52.57l-3,0v-1.81c0-1.05-.55-1.39-1.19-.76L346.84,205c-.65.64-1.71,1.67-2.35,2.31L342.67,209a1.57,1.57,0,0,0,0,2.28l1.85,1.75,2.39,2.26,1.85,1.75c.66.62,1.19.27,1.18-.78l0-1.72h2.26a3.64,3.64,0,0,0,3.28-2.28"/><path class="cls-6" d="M175.46,29.78l4.4,1.31,5.67,1.69,4.39,1.3a2.75,2.75,0,0,0,3.5-2.1l1-4.56c.35-1.63.94-4.28,1.3-5.9l1-4.57c.36-1.62-.66-2.15-2.27-1.19l-2.75,1.67c-1-1.77-2-3.52-2.41-4.16-.89-1.45-2.6-2.57-5.95-2.55l-13.27.08,5.54,10a1.75,1.75,0,0,1,.34.5c.27.55,1.27,2.43,2.27,4.29l-2.69,1.62c-1.61,1-1.65,2.15-.09,2.61"/><path class="cls-7" d="M160.1,14.12c-1.42,2.21-5,8.1-5,8.1a2.77,2.77,0,0,0,.92,3.83l8.85,5.32a2.79,2.79,0,0,0,3.82-1l5.46-9.17c.48-.81,1-.93,1.51-.45l-5.54-10-3.2,0c-2.3,0-4.94.42-6.79,3.3"/><path class="cls-6" d="M144.44,51.34c1,2,3.76,7.07,5.78,10.81l6.28-10.5L159.75,46,163,47.81c1.63.93,2.64.37,2.24-1.25L164.08,42l-1.45-5.87-1.12-4.53a2.75,2.75,0,0,0-3.54-2L153.61,31,148,32.87l-4.36,1.42c-1.55.5-1.49,1.67.14,2.6l2.37,1.35c-1.21,2.39-2.63,5.22-3,6-.65,1.46-.25,4,1.3,7.07"/><path class="cls-7" d="M156.5,51.65l-6.28,10.5c1.13,2.08,2,3.74,2.27,4.2.66,1.28,1.61,3.81,7.6,3.77l8.7-.05a2.81,2.81,0,0,0,2.75-2.85l0-10.51a2.82,2.82,0,0,0-2.79-2.82L156.81,54c-1.07,0-1.21-.72-.83-1.4l.52-.91"/><path class="cls-6" d="M193,52.77l5.19,10.6C200,60,203.08,54,204.34,51.44c1.69-3.44,2.16-6.42,1.39-8s-4.62-9.18-4.62-9.18a2.51,2.51,0,0,0-3.63-1l-8.79,5.54a3,3,0,0,0-1,4s2.68,4.91,4.17,7.67c.46.85.81,1.5.92,1.72a2.27,2.27,0,0,1,.24.65"/><path class="cls-7" d="M196.9,65.75c.21-.36.68-1.23,1.29-2.38L193,52.77c.11.62-.2,1-.94,1l-5.36,0,0-3.28c0-1.91-1-2.53-2.17-1.38l-3.3,3.24-4.27,4.18-3.3,3.24a2.88,2.88,0,0,0,0,4.15L177,67.16l4.34,4.11,3.36,3.18c1.2,1.13,2.16.49,2.14-1.42l0-3.12,4.11,0c3.73,0,5.15-2.72,6-4.13"/><path class="cls-8" d="M304.13,18.48l4.32-12.33a2.19,2.19,0,0,0-1.26-2.76l-3.11-1.25a2.2,2.2,0,0,0-2.82,1.13l-5.39,11.9a2.23,2.23,0,0,1-2.23,1.27,7,7,0,0,0-7,4.35l-12.84,32a2.2,2.2,0,0,0,1.22,2.86l16.15,6.47a2.19,2.19,0,0,0,2.85-1.22l12.85-32a7,7,0,0,0-2-8,2.22,2.22,0,0,1-.73-2.46"/><rect class="cls-6" x="304.52" y="-1.89" width="2.22" height="9.3" transform="translate(189.36 285.43) rotate(-68.16)"/><path class="cls-5" d="M300.13,41.87l-1.28-.52,4.66-11.63c1.65-4.87-.95-6.12-1.06-6.17l.55-1.28c.16.07,3.9,1.75,1.81,7.93Z"/><polygon class="cls-2" points="268.45 94.58 243.74 112.61 227.8 105.31 224.63 111.13 235.34 120.23 244.49 123.65 268.45 112.12 268.45 94.58"/><polygon class="cls-9" points="301.79 57.18 302.32 49.62 296.2 44.88 293.64 48.24 296.4 53.17 295.41 55.74 298.13 59.81 301.79 57.18"/><polygon class="cls-2" points="253.31 143.1 252.81 185.9 257.37 241 263.57 241 271 190.17 279.48 139.24 253.31 143.1"/><polygon class="cls-2" points="263.54 243.62 256.83 246.97 253.48 243.62 256.83 240.26 263.54 240.26 263.54 243.62"/><polygon class="cls-2" points="295.83 143.1 295.95 167.86 291.77 241 285.56 241 275.19 192.47 269.65 139.24 295.83 143.1"/><polygon class="cls-2" points="285.6 243.62 292.31 246.97 295.66 243.62 292.31 240.26 285.6 240.26 285.6 243.62"/><path class="cls-2" d="M302.28,158c.13,3.93.05,9.18-1.61,9.38a1.61,1.61,0,0,1-.88-.23c-2.88-1.4-4.93-3.38-7.76-4.73a35.14,35.14,0,0,0-9.65-2.66,100.68,100.68,0,0,0-14.88-1.31c-4.26,0-8.69,1.91-12.72,3a14,14,0,0,0-4.09,2.42c-1.91,1.31-2.74,1.83-2.48-.84.42-4.36.86-8.72,1.4-13.07a161.76,161.76,0,0,1,5-25.73c.94-3.21,2-6.37,3.11-9.53q2-5.77,4-11.56c1.64-4.78,4.42-8.15,9.28-9.83,4.19-1.44,9.41-1.84,13.49.19,4.54,2.25,6.69,9.92,8.9,14,1.93,3.59,4.37,13.38,5.09,17.26.87,4.66,1.67,9.29,2.31,13.92A144.71,144.71,0,0,1,302.09,154c0,.56.12,2.13.19,4"/><path class="cls-5" d="M279.86,94.16l-8.38.08s-9,31.43-9.33,36.85S259.56,158,259.56,158s9.28.22,20,1.52c10.46,2.24,11.34.92,11.34.92s-5.64-22.67-5.83-29.18S284,102.58,284,102.58Z"/><path class="cls-9" d="M274.78,94.33a1,1,0,0,0,.34.19,1.74,1.74,0,0,0,.82,0l3.32-.39c-.36-3.39,1.62-4.16,3.55-6.35s1.36-5.19,1.25-7.9a5.71,5.71,0,0,0-.39-2.22,4.87,4.87,0,0,0-3.12-2.26,11.81,11.81,0,0,0-9.77,1.08,5.09,5.09,0,0,0-1.87,1.9,7,7,0,0,0-.3,4.08,13.82,13.82,0,0,0,2.09,6c1.12,1.66,3.24,2.46,3.49,4.45a2.28,2.28,0,0,0,.59,1.42"/><path class="cls-2" d="M268.7,80a5.78,5.78,0,0,1,.38,2.57,4.94,4.94,0,0,1-2.72-3.26,5.2,5.2,0,0,1-.32-2,2.38,2.38,0,0,1,.88-1.73,1.49,1.49,0,0,1,2.3.64c.21,1-.8,2.49-.52,3.77"/><path class="cls-2" d="M261.51,72.53A3,3,0,0,1,262.85,70,6.4,6.4,0,0,0,265,68.16c.37-.66.43-1.47.79-2.13.67-1.19,2.12-1.54,3.37-2,3.15-1,4.85-2.17,8.18-.88,2.37.92,5.43,1,7.63,2.39a7.68,7.68,0,0,1,2.34,2.46,13.86,13.86,0,0,1,1.31,12,14.28,14.28,0,0,1-1.17,2.27c-.88,1.43-1.83,3.19-3.38,3.89-.1-.67-.6-1-.76-1.71a5.09,5.09,0,0,1-.05-1.46c.09-1.91.68-4.92-1.22-5.86-2.41-1.2-6.92-.12-9.24.89-2.05.89-5.51,2.06-7.7,1.1-2-.89-3.68-4.44-3.61-6.62"/><polygon class="cls-2" points="282.55 93.05 303.83 86.78 295.95 60.18 302.44 55.52 318.11 86.32 313.77 96.98 293.44 107.47 282.55 93.05"/><polygon class="cls-2" points="404.68 242.48 404.77 243.4 405.06 246.46 411.25 249.11 413.9 245.85 410.66 243 410.37 242.87 410.33 243.25 404.68 242.48"/><path class="cls-10" d="M404.36,242.44l.32,0-.21-2.13,5.89,2.52,4.9-51.61.61-2.44c-4.63.07-10.14.14-15.68.18Z"/><polygon class="cls-10" points="404.68 242.48 410.33 243.25 410.37 242.87 404.47 240.35 404.68 242.48"/><path class="cls-10" d="M379.62,189l1.14,13.51,11.42,35,5.58-.74.09.68h0l-4.12-36.1L397.3,189c-6.49,0-12.82,0-17.68,0"/><polygon class="cls-2" points="392.18 237.51 391.83 237.56 389.28 241.06 392.66 243.78 398.18 239.88 397.86 237.45 392.4 238.18 392.18 237.51"/><polygon class="cls-2" points="392.18 237.51 392.4 238.18 397.86 237.45 397.76 236.77 392.18 237.51"/><path class="cls-11" d="M393.69,104.66a17.72,17.72,0,0,1,2.54-4.81,8.64,8.64,0,0,1,7.25-3.09h0a5,5,0,0,1-.16-1.09c0-2,1.44-3.62,2.4-5.36.09-.17.17-.34.25-.52a10.7,10.7,0,0,0,.49-1.45l-.42.19a6.6,6.6,0,0,1-3.27,1.56l-11.46,5.47-4.6,18.71,1.19.52c3.62-1.43,4.45-6.9,5.75-10.14"/><path class="cls-11" d="M418.33,110.43c.72,3.38,7.19,11.51,6,8.21a91.52,91.52,0,0,0-5.85-13.06c-.79-1.46-.5,3.23-.16,4.85"/><path class="cls-11" d="M426.21,135.23a14.84,14.84,0,0,1-7,1.51,26.28,26.28,0,0,0-5.82.19c-1.89.41-3.78,1.65-4.26,3.53-.26,1-.17,2.35-1.07,2.94a2.89,2.89,0,0,1-1.46.31c-1.54,0-3.28,0-4.32-1.14-1.6-1.76-.66-5.3-2.82-6.31a7.8,7.8,0,0,0-2.05-.36c-2.93-.5-4.36-3.8-4.07-6.84a5.52,5.52,0,0,1-3.4,1.66c-1.49,0-2.79-.93-4-1.85-.76-.59-1.53-1.18-2.32-1.76l-.05.19L371.7,188.62c1.41.18,4.24.29,7.92.36l-.85-10,20.66,2.55L397.3,189l2.89,0-.59-7.56,19.75-6.67-3.48,14c7.1-.1,12.14-.2,12.14-.2s4.32-31.69.49-55.11a9.11,9.11,0,0,1-2.29,1.72"/><path class="cls-11" d="M399.6,181.44l.59,7.56c5.54,0,11.05-.11,15.68-.18l3.48-14Z"/><path class="cls-11" d="M378.77,179l.85,10c4.86.08,11.2.08,17.67.05l2.14-7.48Z"/><path class="cls-12" d="M361.78,101.83c-.17-.76-4.18-4.84-4.41-4.28a9.51,9.51,0,0,0-.5,1.92c-1.63-.87-5.58-4.29-5.34-.34.1,1.71,3.1,4.67,4.61,5.19l.1,0,5.52-1a2.8,2.8,0,0,0,0-1.56"/><path class="cls-11" d="M361.83,103.38h-.07a12,12,0,0,1-1.54,2.36c-1.31-.5-2.65-.94-4-1.4l-1.43.25c7.32,9.45,18.95,15.31,28.79,22.51l3.15-12.83Z"/><path class="cls-11" d="M389.89,130.72a5.52,5.52,0,0,0,3.4-1.66,6.86,6.86,0,0,1,.39-1.82c1.21-3.37,4-5.87,6.13-8.76,4.13-5.63,6.93-13.15,4.39-19.81a19.61,19.61,0,0,1-.68-1.9h0a8.64,8.64,0,0,0-7.25,3.09,17.72,17.72,0,0,0-2.54,4.81c-1.3,3.24-2.13,8.71-5.75,10.14l-1.19-.52-3.15,12.83c.79.58,1.56,1.17,2.32,1.76,1.18.92,2.48,1.88,4,1.85"/><path class="cls-13" d="M361.76,103.39l-5.52,1c1.33.46,2.67.9,4,1.39a11.69,11.69,0,0,0,1.54-2.35"/><path class="cls-14" d="M406.56,88.11c1.07-4.66-.09-12-3.21-14.75a5.89,5.89,0,0,0-4.18-1.29c-.73,0-1,.19-1.36.12a7.49,7.49,0,0,0-1.79,5c.12,1.45,1,2.56,1,4.11.13,2.84,4.18,5.68,2.62,8.49a6.68,6.68,0,0,0,3.15.28l3.27-1.56c.16-.13.32-.28.48-.43"/><path class="cls-14" d="M402.81,90.1a6.6,6.6,0,0,0,3.27-1.56Z"/><path class="cls-14" d="M397,81.33c-.07-1.55-.9-2.66-1-4.11a7.55,7.55,0,0,1,1.8-5,1.8,1.8,0,0,1-.65-.29,4.19,4.19,0,0,1-1.32-2A6.58,6.58,0,0,0,393.05,75a19,19,0,0,0,.63,8.36,10.34,10.34,0,0,0,5.53,6.32l.45.16c1.56-2.81-2.49-5.65-2.62-8.49"/><path class="cls-2" d="M425.41,119.61c-.35-.33-.71-.65-1.07-1,.24.61.47,1.22.71,1.85s.47,1.27.7,1.91c.15.42.29.84.43,1.27-.14-.43-.28-.85-.43-1.27-.23-.64-.47-1.28-.7-1.91s-.47-1.24-.71-1.85c-2.61-2.35-5.29-4.83-6-8.21a11.51,11.51,0,0,1,.16-4.85c.55-2.6,1.6-5.2,1.88-7.86a51.25,51.25,0,0,0-1-15.52,33.06,33.06,0,0,0-6.88-12.8c-3.76-4.54-10.76-9.63-15.71-3.68l-.17.21a9.26,9.26,0,0,0-1.68-.65c-3.43,2.89-4.31,7.53-3.95,11.79s2.52,9.12,1.3,13.36a4.36,4.36,0,0,0-.26,1.23,1.07,1.07,0,0,0,.6,1,1.61,1.61,0,0,0,.76,0c2.09-.27,4.37-.64,5.79-2.2a3.49,3.49,0,0,0,.5-.7l-.45-.16a10.32,10.32,0,0,1-5.53-6.32,19,19,0,0,1-.63-8.36,6.58,6.58,0,0,1,2.79-5.08,4.19,4.19,0,0,0,1.32,2,1.8,1.8,0,0,0,.65.29c.38.06.63-.13,1.36-.12a5.89,5.89,0,0,1,4.18,1.29c3.12,2.74,4.28,10.09,3.21,14.75a11.57,11.57,0,0,0,2.17-12.43c-.11-.23-.22-.46-.35-.68.13.22.24.45.35.68a11.57,11.57,0,0,1-2.17,12.43l-.06.24A10.7,10.7,0,0,1,406,89.8c-.08.18-.16.35-.25.52-1,1.74-2.44,3.37-2.4,5.36a5,5,0,0,0,.16,1.09,19.61,19.61,0,0,0,.68,1.9c2.54,6.66-.26,14.18-4.39,19.81-2.12,2.89-4.92,5.39-6.13,8.76a6.86,6.86,0,0,0-.39,1.82c-.29,3,1.14,6.34,4.07,6.84a7.8,7.8,0,0,1,2.05.36c2.16,1,1.22,4.55,2.82,6.31,1,1.14,2.78,1.18,4.32,1.14a2.89,2.89,0,0,0,1.46-.31c.9-.59.81-1.9,1.07-2.94.48-1.88,2.37-3.12,4.26-3.53a26.28,26.28,0,0,1,5.82-.19,14.84,14.84,0,0,0,7-1.51,9.36,9.36,0,0,0,2.29-1.72c-.08-.5-.17-1-.26-1.49.09.49.18,1,.26,1.49a7.29,7.29,0,0,0,2-3.84c.66-3.87-2.2-7.42-5.11-10.06M403.29,70.09a11,11,0,0,1,1.18.69,11,11,0,0,0-1.18-.69"/><polygon class="cls-9" points="82.34 77.07 84.42 74.69 84.22 71.9 84.78 71.55 85.23 72.24 85.72 69.87 87.23 68.64 89.7 69.34 91.27 71.51 90.31 73.93 87.9 75.86 85.19 79.24 82.34 77.07"/><polygon class="cls-15" points="81.95 75.08 59.9 92.55 45.74 89.99 43.68 109.69 61.29 106.2 68.51 103.3 88.96 78.94 81.95 75.08"/><polygon class="cls-2" points="48.86 240.51 48.86 243.17 55.68 246.58 59.1 243.17 55.68 239.76 55.24 239.76 55.13 240.51 48.86 240.51"/><polygon class="cls-2" points="32.05 239.76 31.58 239.76 28.17 243.17 31.58 246.58 38.41 243.17 38.41 240.51 32.13 240.51 32.05 239.76"/><path class="cls-15" d="M32.15,139.52a82,82,0,0,0,1.66-11c.2-6.84,1.06-29.44,1.06-29.44l4.18-8.65h.77l-.17,0c.18,0-.09-1.67-.15-1.82a14.44,14.44,0,0,0-10.6,4.78,26.4,26.4,0,0,0-3.69,7.23c-2.76,7.14-4,13.76-5.4,21.27-.87,4.78-1.69,9.55-2.33,14.3a153.15,153.15,0,0,0-1.35,15.73c0,.58-.13,2.19-.19,4.12-.14,4,0,9.44,1.62,9.64a1.59,1.59,0,0,0,.89-.24,59.25,59.25,0,0,0,5.74-3.66l.1-21.06Z"/><path class="cls-15" d="M70.56,161.16c-.43-4.48-.87-9-1.41-13.43a167.92,167.92,0,0,0-5-26.43c-1-3.3-2-6.55-3.15-9.8q-2-5.93-4-11.87c-1.66-4.91-4.46-8.38-9.37-10.1a18.47,18.47,0,0,0-2.75-.72c0,.11,0,.21,0,.32a2.59,2.59,0,0,1-.49,1.34l3.22,0s9.09,32.29,9.42,37.85c.13,2.12.55,6.74,1,11.6l4.94.74.21,18.61.82.23a14.27,14.27,0,0,1,4.14,2.5c1.92,1.34,2.76,1.87,2.5-.87"/><path class="cls-16" d="M58,140c.74,7.7,1.61,16,1.61,16s-4,.1-9.76.54c.42,0,.85,0,1.28,0,4,0,8.17,1.7,12,2.82l-.21-18.61Z"/><path class="cls-15" d="M31,158.85c-2.75.14-3.1-.38-3.1-.38s2.49-10.13,4.23-18.95l-7.86,1.17-.1,21.06a20.37,20.37,0,0,1,2.1-1.19A25.63,25.63,0,0,1,31,158.85"/><path class="cls-2" d="M63.1,159.3c-3.85-1.12-8-2.86-12-2.82-.43,0-.86,0-1.28,0l-1.09.08c-2.69.22-5.72.51-8.87.89l-.47.06A55.55,55.55,0,0,1,31,158.85a25.63,25.63,0,0,0-4.73,1.71,20.37,20.37,0,0,0-2.1,1.19l0,4.38,7.69,74.48h6.31v.76h0l6.93-50,0-.28L49,241.37h0v-.76h6.34l8-55.94Z"/><path class="cls-5" d="M58,140c-.47-4.86-.89-9.48-1-11.6-.33-5.56-9.42-37.85-9.42-37.85l-3.22,0a.57.57,0,0,1-.11.11.87.87,0,0,1-.35.2,1.88,1.88,0,0,1-.82,0l-3.19-.39h-.77l-4.18,8.65s-.86,22.6-1.06,29.44a82,82,0,0,1-1.66,11c-1.74,8.82-4.23,18.95-4.23,18.95s.35.52,3.1.38a55.55,55.55,0,0,0,8.35-1.31l.47-.06c3.15-.38,6.18-.67,8.87-.89l1.09-.08c5.77-.44,9.76-.54,9.76-.54s-.87-8.32-1.61-16"/><polygon class="cls-9" points="47.27 134.48 49.79 136.36 52.51 135.89 52.9 136.42 52.27 136.94 54.63 137.2 55.98 138.61 55.51 141.18 53.53 142.98 51.07 142.24 48.97 139.99 45.41 137.58 47.27 134.48"/><polygon class="cls-15" points="49.49 134.38 36.13 123.6 35.04 95.77 24.39 106.57 22.46 124.48 25.07 131.24 47.67 140.64 49.49 134.38"/><path class="cls-2" d="M50.13,69.83a11.79,11.79,0,0,1,1.13,5.3,1.68,1.68,0,0,0,.37,1.35c.4.33,0,1,.34.59a8.93,8.93,0,0,0,1.54-2.27,19.32,19.32,0,0,0,.18-3.64,5.31,5.31,0,0,0-.84-3,5.83,5.83,0,0,0-1.41-1.21,7.37,7.37,0,0,0-2.37-1.24c-1.5-.37-2.46.14-1.18,1.28a9.29,9.29,0,0,1,2.24,2.85"/><path class="cls-9" d="M39.67,90l6.22.92a39.69,39.69,0,0,0,.84-5.53c1.83-.22,4-.71,4.71-2.61a6.41,6.41,0,0,0,.31-1.9c.15-2.68.31-5.36.46-8a7.74,7.74,0,0,0-.16-2.76A5.56,5.56,0,0,0,48.9,67a11.71,11.71,0,0,0-10.79.1,6,6,0,0,0-2.27,2.09,9.51,9.51,0,0,0-.79,5c0,1.57.06,3.15.08,4.72,0,1.81.2,3.9,1.53,4.92.7.55,1.64.69,2.24,1.38,1.05,1.21.44,3.23.77,4.89"/><path class="cls-2" d="M52.44,79.85c0-.5-.14-2-.92-1.09a1.51,1.51,0,0,0-.3.88,3.37,3.37,0,0,1-.15,1,1.63,1.63,0,0,1-1.69.9,1.6,1.6,0,0,1-.76-.23,2.53,2.53,0,0,1-.56-.57l-1.21-1.57c-.69-.9-2.17-.6-3.17-.52a6.29,6.29,0,0,0-3.28,1.09l-.29.23a3.12,3.12,0,0,1-.74.48,2.16,2.16,0,0,1-2.55-1c-.27-.39-.51-.88-1-1A.89.89,0,0,0,35,79a2.59,2.59,0,0,0-.3,1.08,8.18,8.18,0,0,0,.48,4.08c1.15,2.72,3.6,3.18,6.09,3.25l3,.08c1.8.06,3.7.08,5.27-.9a6.59,6.59,0,0,0,2.66-4.07,10.48,10.48,0,0,0,.3-2.62m-6.76,3.43a3.38,3.38,0,0,1-3.06.2c-.44-.16-.21-.92.23-.76a2.73,2.73,0,0,0,2.5-.14c.41-.25.74.45.33.7"/><path class="cls-2" d="M53.55,65.35A13.21,13.21,0,0,0,54,63.4a3.86,3.86,0,0,1-1.91.06l.06-1.15c0-.32-4.24-.77-4.59-.82-3.23-.44-6.18-.85-9.2.76a9,9,0,0,0-4.83,6.48,14,14,0,0,0,1.68,8.91,19.52,19.52,0,0,1-.09-3.23,6.51,6.51,0,0,1,.78-2,8.35,8.35,0,0,1,3-2.94,15.87,15.87,0,0,1,6.43-1.83,17,17,0,0,1,6.48.33c.94.31,1.09.57,1.72-.39a16.88,16.88,0,0,0,1-2.16l-1-.07"/><path class="cls-17" d="M197.66,60.57q-.72-2.4-1.41-4.81l-2.09.59.21,3.53-1.08-.18c.59,1.33,1.21,2.63,1.83,3.95.74-.1,1.48-.21,2.23-.28.1-.94.17-1.88.31-2.8"/><path class="cls-18" d="M178.17,103a8,8,0,0,1-.32-.75,13.27,13.27,0,0,1-.44-8.93,2,2,0,0,1,.71-1.07,2.32,2.32,0,0,1,1-.29l9.17-1a1.12,1.12,0,0,0,1.2-.91c.95-2.57,6.14-27.35,4.52-27.51,1.5-.12,3-.26,4.49-.37,1.51,7.95,3.19,30.51,1,33.21-4.91,6.13-6.9,6.53-14.17,10a6.54,6.54,0,0,1-2.84.81,5.39,5.39,0,0,1-4.36-3.17"/><path class="cls-17" d="M132.92,85.39l-4.51-2.18-1,2,2.75,2.21-.85.68c1.38.45,2.76.86,4.15,1.29.43-.62.84-1.25,1.29-1.85-.63-.7-1.28-1.38-1.87-2.1"/><polygon class="cls-19" points="160.94 237.25 160.93 243.67 164.65 243.68 164.67 236.56 160.94 237.25"/><polygon class="cls-19" points="178.65 235.18 177.68 242.09 181.69 242.65 182.76 234.99 178.65 235.18"/><path class="cls-2" d="M181.75,242.65l-3.67-.56-1.45.55-1.06,2.52,8.14,5.05a2.18,2.18,0,0,0,.52-3.42l-.32-.34Z"/><path class="cls-2" d="M164.65,243.68h-3.72l-1.31,1.72.26,2.72,9.57.59.27-.62a2,2,0,0,0-1.57-2.79l-.21,0Z"/><polygon class="cls-20" points="149.58 175.46 156.22 205.81 160.27 240.17 166.43 240.18 171.31 154.11 150.67 154.44 149.58 175.46"/><polygon class="cls-20" points="189.11 173.69 189.9 203.14 184.51 237.92 176.63 237.87 175.01 200.99 169.34 174.25 167.46 156.75 184.65 154.73 189.11 173.69"/><polygon class="cls-18" points="176.74 89.88 157.44 92.07 154.22 102.74 149.66 134.14 147.44 160.82 178.48 161.3 188.69 159.66 186.06 131.65 182.19 99.84 176.74 89.88"/><path class="cls-17" d="M174.54,69.22a8.28,8.28,0,0,0-5.91-2.42c-7.59.07-8.17,7.46-6.76,13.21a11.24,11.24,0,0,0,4,6.55,6.93,6.93,0,0,0,1.9,1h0c-.12.39-.1,5.15-.43,5.1a10.32,10.32,0,0,0,5.24-.66c-.06-1.42.13-3.17,0-4.7a4.78,4.78,0,0,0,.61-.38c2-1.47,2.7-4.17,3.08-6.66.49-3.22.79-8.49-1.71-11"/><path class="cls-2" d="M175.07,76.3c.24.29.66.36,1,.59,1,.78,0,2.49.63,3.6a4.35,4.35,0,0,1-.84,5.08c-.5.4-1.18.68-1.38,1.29s.24,1.62-.26,2.17c.8.82,2.17.65,3.23.2a8.17,8.17,0,0,1,3.25-1c.37,0,.8.07,1-.22a1.21,1.21,0,0,0,.16-.63c.26-2.63,3.37-2,3.79-4.1.11-.57-.59-2-.58-2.74,0-1.2.7-2.27.29-3.5-.16-.51-.5-.94-.68-1.45a6.31,6.31,0,0,1,.23-3.21c.21-1.07.18-2.36-.69-3-.69-.5-1.68-.44-2.35-1-1.49-1.15-.39-4.17-2.07-5-.86-.44-1.91.05-2.86-.09a7,7,0,0,1-2.62-1.53c-.84-.57-2.11-.88-2.8-.13s-.42,1.69-.95,2.37-1.27.7-1.93,1c-3.13,1.48,2.76,2.44,3.6,3.48a22.84,22.84,0,0,1,2,3.51c.6,1.17.22,3.6.86,4.35"/><path class="cls-2" d="M166,68.88c-3.82.81-1.51,3.67-2.73,6-.48.92-1.79,1.26-2.06,2.26-.21.81.38,1.58.86,2.27s.83,1.68.26,2.29c-.17.19-.41.31-.53.53-.32.58.39,1.16,1,1.42s1.34.78,1.1,1.39c-.7,1.78-1.15,1,0,2.55.28.36.76.3,1,.67a1.73,1.73,0,0,1-2,.45c-1.78-.69-1.29.17-2.68.39s-1.51-.22-2.79-1-3.7-1.3-4.12-2.84c-.24-.87.43-1.76.23-2.63s-1.08-1.43-1.5-2.2c-.84-1.55.43-3.25.7-4.92.36-2.3-1-5.17,1.43-6.63.53-.31,1.17-.5,1.7-.8,1.57-.89,1.88-2.52,2.5-3.91a4.09,4.09,0,0,1,4.14-2.58c1.75.29,2.69,2,4.47,2.14a6.66,6.66,0,0,1,1.86.15,1.79,1.79,0,0,1,.85.87c.42.78,1.66,3.43.72,4.15-1.21.95-2.84-.33-4.46,0"/><path class="cls-8" d="M180.46,77.89a2.29,2.29,0,0,0,.41-.93,1.21,1.21,0,0,0-.65-1.2,7.34,7.34,0,0,0-.83-.35c-.59-.25-1.07-.53-.8-1.38a4.1,4.1,0,0,1,.22-.41,2.32,2.32,0,0,0,.1-1.6,1.31,1.31,0,0,0-.82-.88,4.09,4.09,0,0,0-1,0c-1.25-.08-.78-1.24-.7-2a2.22,2.22,0,0,0-2-2.49c-.2,0-.19.28,0,.31a2,2,0,0,1,1.47,1,2.48,2.48,0,0,1,.08,1.72,1.57,1.57,0,0,0,.32,1.49c.66.58,1.64-.21,2.19.64s-.06,1.53-.3,2.29c-.61,1.93,3.33,1.32,2.13,3.4-.31.54-.9,1.07-.8,1.76a.9.9,0,0,0,1,.83c.19,0,.19-.33,0-.31-.84.09-.65-1-.44-1.32.12-.21.28-.4.41-.6"/><path class="cls-8" d="M163.2,68.07c-1.07-.14-2.73-.11-2.88,1.3a7.48,7.48,0,0,0,.47,2.07c.23,1.4-1.17,1.69-2.15,2.11s-2,1.66-.85,2.57c.14.09.27.19.4.29l-.24.93a4.13,4.13,0,0,1-.49.32,1,1,0,0,0-.35.54.6.6,0,0,0,.57.72c.2,0,.2-.3,0-.31l.09-.8.25-.15c.08-.07.18-.11.26-.18a1.4,1.4,0,0,0,.32-.37.74.74,0,0,0-.2-.92c-.25-.25-.52-.34-.69-.7-.3-.61.12-1.16.67-1.48s1.26-.44,1.83-.79a1.85,1.85,0,0,0,.74-2.37c-.23-.73-.65-1.7.15-2.24a3.16,3.16,0,0,1,2.1-.24c.19,0,.19-.28,0-.3"/><path class="cls-8" d="M156.06,73.57a.16.16,0,0,0-.08-.3c-.83.25-1.91.67-1.88,1.72a1,1,0,0,0,.35.75c.34.29.76.27,1.06.65a.89.89,0,0,1-1,1.37.15.15,0,0,0-.08.29,1.23,1.23,0,0,0,1.65-1.28,1.32,1.32,0,0,0-.81-1c-.6-.34-1.13-.85-.56-1.52a2.77,2.77,0,0,1,1.38-.68"/><path class="cls-18" d="M157.44,92.07s-5.5.75-8.08,5.05l-5.42,9.72-8.5-20.09L131,89.12l4.44,24.93s6.74,4.44,7.53,4.66,13.33-6.21,15.53-9Z"/><path class="cls-21" d="M140,161l4.41,84.39a4.26,4.26,0,0,0,4.25,4.1h52.13a4.25,4.25,0,0,0,4.25-4.1L209.5,161Z"/><rect class="cls-22" x="136.65" y="151.65" width="76.23" height="9.35"/><polygon class="cls-21" points="209.5 151.65 140.04 151.65 145.43 126.74 204.11 126.74 209.5 151.65"/><path class="cls-2" d="M193.7,147H155.83a3.48,3.48,0,0,1-3.49-3.48v-5.29a3.48,3.48,0,0,1,3.49-3.48H193.7a3.48,3.48,0,0,1,3.49,3.48v5.29A3.48,3.48,0,0,1,193.7,147"/><path class="cls-5" d="M185.07,206.23a1.58,1.58,0,0,0-.13-.36l-.51-1Z"/><path class="cls-5" d="M175.41,193.57l2.42.71,3.13.94,2.41.72a1.53,1.53,0,0,0,1.93-1.16l.55-2.52c.2-.89.52-2.35.72-3.25l.56-2.51c.2-.89-.37-1.19-1.25-.65l-1.52.91c-.56-1-1.11-1.93-1.33-2.28-.49-.81-1.42-1.42-3.27-1.41l-7.31,0,3.05,5.49a.93.93,0,0,1,.19.27c.15.3.7,1.34,1.25,2.37l-1.48.89c-.89.53-.91,1.18-.05,1.44"/><path class="cls-5" d="M167,184.94c-.78,1.22-2.77,4.46-2.77,4.46a1.53,1.53,0,0,0,.51,2.11l4.87,2.93a1.55,1.55,0,0,0,2.11-.54l3-5.06c.26-.44.58-.51.83-.24l-3.05-5.49h-1.76a4.05,4.05,0,0,0-3.74,1.82"/><path class="cls-5" d="M158.33,205.43c.55,1.09,2.07,3.9,3.18,6l3.46-5.78,1.79-3.12,1.77,1c.9.51,1.45.2,1.23-.68l-.62-2.5-.8-3.23-.61-2.5a1.51,1.51,0,0,0-1.95-1.11l-2.4.78-3.1,1-2.4.79c-.86.27-.82.92.08,1.43l1.3.74c-.67,1.32-1.45,2.88-1.65,3.32-.35.81-.13,2.2.72,3.89"/><path class="cls-5" d="M165,205.61l-3.46,5.78,1.25,2.31c.37.71.89,2.1,4.18,2.08l4.8,0a1.54,1.54,0,0,0,1.51-1.57l0-5.79a1.54,1.54,0,0,0-1.53-1.55l-6.55,0c-.59,0-.67-.4-.46-.77,0-.05.14-.23.29-.5"/><path class="cls-5" d="M185.07,206.23l2.85,5.83c1-1.88,2.7-5.16,3.39-6.57.93-1.89,1.19-3.53.76-4.4s-2.54-5.05-2.54-5.05a1.38,1.38,0,0,0-2-.57l-4.84,3a1.68,1.68,0,0,0-.56,2.18s1.48,2.71,2.3,4.23l.51,1a1.58,1.58,0,0,1,.13.36"/><path class="cls-5" d="M187.22,213.37c.11-.2.37-.67.7-1.31l-2.85-5.84c.06.34-.11.57-.52.58h-3l0-1.8c0-1.06-.55-1.4-1.19-.76L178.57,206l-2.35,2.3-1.82,1.79a1.57,1.57,0,0,0,0,2.28l1.85,1.75,2.39,2.26,1.85,1.75c.66.62,1.19.27,1.18-.78l0-1.72h2.26a3.69,3.69,0,0,0,3.29-2.28"/><path class="cls-8" d="M54,161l4.41,84.39a4.25,4.25,0,0,0,4.25,4.1h52.13a4.25,4.25,0,0,0,4.25-4.1L123.42,161Z"/><rect class="cls-23" x="50.58" y="151.65" width="76.23" height="9.35"/><polygon class="cls-8" points="123.42 151.65 53.97 151.65 59.35 126.74 118.04 126.74 123.42 151.65"/><path class="cls-2" d="M107.63,147H69.76a3.48,3.48,0,0,1-3.49-3.48v-5.29a3.48,3.48,0,0,1,3.49-3.48h37.87a3.48,3.48,0,0,1,3.49,3.48v5.29a3.48,3.48,0,0,1-3.49,3.48"/><path class="cls-5" d="M99,206.23a1.58,1.58,0,0,0-.13-.36l-.52-1Z"/><path class="cls-5" d="M89.34,193.57l2.42.71,3.12.94,2.42.72a1.52,1.52,0,0,0,1.92-1.16l.56-2.52c.2-.89.52-2.35.72-3.25l.56-2.51c.19-.89-.37-1.19-1.25-.65l-1.52.91c-.56-1-1.11-1.93-1.33-2.28-.49-.81-1.43-1.42-3.27-1.41l-7.31,0,3.05,5.49a1.17,1.17,0,0,1,.19.27c.15.3.7,1.34,1.25,2.37l-1.48.89c-.89.53-.91,1.18,0,1.44"/><path class="cls-5" d="M80.88,184.94c-.78,1.22-2.77,4.46-2.77,4.46a1.52,1.52,0,0,0,.5,2.11l4.88,2.93a1.55,1.55,0,0,0,2.11-.54l3-5.06c.26-.44.58-.51.83-.24l-3.05-5.49H84.62a4.05,4.05,0,0,0-3.74,1.82"/><path class="cls-5" d="M72.26,205.43c.55,1.09,2.07,3.9,3.18,6l3.46-5.78c.4-.71,1.16-2,1.79-3.12l1.77,1c.89.51,1.45.2,1.23-.68l-.62-2.5-.8-3.23-.61-2.5a1.51,1.51,0,0,0-2-1.11l-2.4.78-3.11,1-2.4.79c-.85.27-.81.92.09,1.43l1.3.74c-.67,1.32-1.45,2.88-1.65,3.32-.36.81-.14,2.2.72,3.89"/><path class="cls-5" d="M78.9,205.61l-3.46,5.78,1.25,2.31c.36.71.89,2.1,4.18,2.08l4.8,0a1.55,1.55,0,0,0,1.51-1.57l0-5.79a1.56,1.56,0,0,0-1.54-1.55l-6.54,0c-.59,0-.67-.4-.46-.77l.29-.5"/><path class="cls-5" d="M99,206.23l2.85,5.83c1-1.88,2.7-5.16,3.39-6.57.93-1.89,1.19-3.53.76-4.4s-2.54-5.05-2.54-5.05a1.38,1.38,0,0,0-2-.57l-4.84,3a1.68,1.68,0,0,0-.56,2.18l2.29,4.23.52,1a1.58,1.58,0,0,1,.13.36"/><path class="cls-5" d="M101.14,213.37c.12-.2.38-.67.71-1.31L99,206.22c.06.34-.11.57-.52.58h-3V205c0-1.06-.55-1.4-1.19-.76L92.5,206l-2.35,2.3-1.82,1.79a1.57,1.57,0,0,0,0,2.28l1.85,1.75,2.39,2.26,1.85,1.75c.66.62,1.19.27,1.18-.78l0-1.72h2.26a3.67,3.67,0,0,0,3.28-2.28"/><path class="cls-24" d="M222.51,159.92l4.42,84.39a4.25,4.25,0,0,0,4.25,4.1h52.13a4.26,4.26,0,0,0,4.25-4.1L292,159.92Z"/><rect class="cls-25" x="219.13" y="150.58" width="76.23" height="9.35"/><polygon class="cls-24" points="291.97 150.58 222.51 150.58 227.9 125.66 286.58 125.66 291.97 150.58"/><path class="cls-2" d="M276.18,145.93H238.3a3.48,3.48,0,0,1-3.48-3.49v-5.28a3.48,3.48,0,0,1,3.48-3.49h37.88a3.49,3.49,0,0,1,3.49,3.49v5.28a3.49,3.49,0,0,1-3.49,3.49"/><path class="cls-5" d="M267.54,205.15a1.22,1.22,0,0,0-.13-.36c-.06-.12-.25-.48-.51-.95Z"/><path class="cls-5" d="M257.89,192.49l2.42.72,3.12.93,2.42.72a1.52,1.52,0,0,0,1.92-1.16l.56-2.51c.2-.9.52-2.36.72-3.25l.55-2.52c.2-.89-.36-1.18-1.25-.65l-1.51.92c-.56-1-1.12-1.94-1.33-2.29-.49-.8-1.43-1.42-3.27-1.41l-7.31,0,3.05,5.48a1.05,1.05,0,0,1,.19.28c.14.3.7,1.33,1.25,2.36l-1.49.89c-.88.54-.9,1.18,0,1.44"/><path class="cls-5" d="M249.43,183.86c-.79,1.22-2.77,4.46-2.77,4.46a1.54,1.54,0,0,0,.5,2.12l4.88,2.92a1.53,1.53,0,0,0,2.1-.54l3-5c.26-.45.57-.51.83-.25L254.93,182h-1.76a4,4,0,0,0-3.74,1.81"/><path class="cls-5" d="M240.81,204.36c.55,1.09,2.07,3.89,3.18,5.95l3.45-5.78,1.8-3.12,1.76,1c.9.52,1.46.21,1.24-.68l-.62-2.5-.8-3.23-.62-2.5a1.52,1.52,0,0,0-1.95-1.11l-2.4.79-3.1,1-2.4.78c-.85.28-.82.92.08,1.43l1.31.74c-.67,1.32-1.45,2.88-1.65,3.32-.36.81-.14,2.2.72,3.9"/><path class="cls-5" d="M247.44,204.53,244,210.31l1.25,2.31c.36.71.88,2.1,4.18,2.08l4.79,0a1.55,1.55,0,0,0,1.52-1.57l0-5.79a1.56,1.56,0,0,0-1.54-1.55l-6.54,0c-.59,0-.67-.4-.46-.77l.28-.5"/><path class="cls-5" d="M267.54,205.15,270.4,211c1-1.88,2.69-5.15,3.39-6.57.93-1.89,1.19-3.53.76-4.39S272,195,272,195a1.38,1.38,0,0,0-2-.57l-4.84,3.05a1.66,1.66,0,0,0-.56,2.18l2.29,4.22c.26.47.45.83.51.95a1.22,1.22,0,0,1,.13.36"/><path class="cls-5" d="M269.69,212.29c.11-.19.37-.67.71-1.31l-2.86-5.83c.06.34-.1.57-.52.57l-2.95,0v-1.81c0-1.05-.55-1.39-1.2-.76L261.05,205c-.65.64-1.71,1.67-2.35,2.31L256.88,209a1.57,1.57,0,0,0,0,2.28l1.85,1.75,2.39,2.26,1.84,1.75c.66.62,1.19.27,1.18-.78v-1.72h2.26a3.64,3.64,0,0,0,3.28-2.28"/><path class="cls-14" d="M367.11,92.1l-1.77-2.34c.14-.85.27-1.7.4-2.55l-.5-.36-.46.6c-.1-.74-.19-1.48-.28-2.21L363.18,84l-2.36.46-1.63,1.89c.24.76.48,1.54.71,2.28.72.78,1.38,1.13,2.11,2s1.53,2.26,2.27,3.24c1-.58,1.89-1.19,2.83-1.78"/><path class="cls-11" d="M367,88.88c2.94,3.16,5.92,6.29,8.63,9.66,1.68,2.09,4,8,6.91,5.79L392.46,97a6.88,6.88,0,0,1,1.84-1.09c3.93-1.34,5.83,4.09,6.71,7.06a21.8,21.8,0,0,1,.8,2.84,5.41,5.41,0,0,1,.07,2.9,4.79,4.79,0,0,1-2.37,2.28,57.05,57.05,0,0,1-12.89,5.35,57.8,57.8,0,0,1-7.26,1.53c-2.63.37-2.8-.13-4-2.56-4.18-8.58-9-14.26-13-23L367,88.88"/><path class="cls-15" d="M229.86,71.87,228.81,61.8a2.44,2.44,0,0,0-2.57-2.17l-2.23.13a2.43,2.43,0,0,0-2.3,2.45l.12,10.13a2.39,2.39,0,0,1-1.47,2.25,6.34,6.34,0,0,0-3.94,6.23l2.21,38.29a2.45,2.45,0,0,0,2.58,2.3l14.92-.87a2.43,2.43,0,0,0,2.29-2.57l-2.21-38.3a6.36,6.36,0,0,0-4.63-5.73,2.38,2.38,0,0,1-1.72-2.07"/><rect class="cls-2" x="220.94" y="59.41" width="8.46" height="2.02" transform="translate(-3.11 13.1) rotate(-3.31)"/><path class="cls-5" d="M235.66,93,234.4,93l-.66-11.38C233.21,77,230.59,77,230.48,77l0-1.26c.16,0,3.89-.07,4.55,5.83Z"/><path class="cls-18" d="M106.87,236.46a3.66,3.66,0,0,0-3.65,3.65V253a3.65,3.65,0,0,0,3.65,3.65H118.1a10,10,0,0,0,6.09-2.07,9.24,9.24,0,0,0,5.82,2.07h17.75a2.81,2.81,0,0,0,2.81-2.81V239.27a2.81,2.81,0,0,0-2.81-2.81H130a9.24,9.24,0,0,0-5.82,2.07,10.06,10.06,0,0,0-6.09-2.07Z"/><rect class="cls-18" x="99.53" y="242.5" width="3.96" height="8.15"/><rect class="cls-2" x="95.05" y="241.87" width="5.25" height="9.41"/><rect class="cls-26" x="130.63" y="238.41" width="1.08" height="16.34"/><rect class="cls-26" x="136.46" y="238.41" width="1.08" height="16.34"/><rect class="cls-26" x="141.94" y="238.41" width="1.08" height="16.34"/><path class="cls-11" d="M86,31.66a4.07,4.07,0,0,0-5.67-1L68.62,39a4.07,4.07,0,0,0-1,5.67L74.9,54.9a11.14,11.14,0,0,0,5.81,4.2,10.29,10.29,0,0,0,1.87,6.62L94,81.83a3.13,3.13,0,0,0,4.37.74l13.26-9.42a3.13,3.13,0,0,0,.74-4.37L101,52.67a10.25,10.25,0,0,0-5.63-4,11.13,11.13,0,0,0-2-6.87Z"/><rect class="cls-11" x="68.85" y="31.11" width="9.07" height="4.42" transform="translate(-5.74 48.66) rotate(-35.39)"/><rect class="cls-8" x="65.67" y="26.91" width="10.48" height="5.85" transform="translate(-4.18 46.58) rotate(-35.39)"/><rect class="cls-26" x="83.42" y="59.64" width="18.2" height="1.2" transform="translate(-17.8 64.71) rotate(-35.39)"/><rect class="cls-26" x="87.18" y="64.94" width="18.2" height="1.2" transform="translate(-20.17 67.87) rotate(-35.39)"/><rect class="cls-26" x="90.71" y="69.92" width="18.2" height="1.2" transform="translate(-22.4 70.84) rotate(-35.39)"/><polygon class="cls-9" points="216.91 103.44 218.4 101.98 219.94 103.95 221.58 104.23 223.49 107.54 221.25 110.77 216.76 111.7 215.28 106.16 216.91 103.44"/><path class="cls-27" d="M320.78,64.35l54.78-8.09,8.61-13-54.28,8s-8.79,13.57-9.11,13.12"/><polygon class="cls-28" points="332.97 54.41 366.8 49.41 368.01 57.63 333.66 62.7 332.97 54.41"/><path class="cls-29" d="M327.1,39.14a44.55,44.55,0,0,0,3,8.42l13.54,32.56L340,81.66,323,40.85Z"/><path class="cls-29" d="M327.1,39.14c.59,1.43-1.62,3.7-4.94,5.08s-6.5,1.35-7.09-.08,1.62-3.7,4.94-5.08,6.5-1.34,7.09.08"/><path class="cls-30" d="M318.33,41.66l1.4,3.37a12.72,12.72,0,0,0,2-.65c2.27-.94,4.2-2.13,4.28-3.67-.87-1.77-5.71.08-7.73.95"/><path class="cls-26" d="M322,44.27a13.05,13.05,0,0,1-3.3.89c-1.86.23-3.29-.11-3.67-1L324.16,66,332,85l10.59-4.41L326.35,41.41l-.29-.7c-.07,1.48-1.87,2.63-4,3.56"/><path class="cls-29" d="M389.43,29.36a75.09,75.09,0,0,0-4.1,9.42l-15,37.73-2.91-1.15L386.2,28.07Z"/><path class="cls-29" d="M389.43,29.36c-.65,1.65-3.31,2.14-5.93,1.1s-4.21-3.21-3.56-4.87,3.31-2.14,5.93-1.1,4.22,3.22,3.56,4.87"/><path class="cls-30" d="M383.27,25.62l-1.55,3.91a6.88,6.88,0,0,0,1.49.82c1.79.71,3.57,1,4.64-.32.74-2.14-3-3.8-4.58-4.41"/><path class="cls-26" d="M383.41,30.43A7.45,7.45,0,0,1,381.13,29c-1.1-1-1.61-2.32-1.19-3.38l-10,25.33-8.7,22,8.36,3.31,18-45.35.32-.81c-1,1.24-2.72,1-4.44.4"/><path class="cls-29" d="M376.9,26.34a74.29,74.29,0,0,0-1.66,10.15L370,76.74l-3.11-.41,6.55-50.44Z"/><path class="cls-29" d="M376.9,26.34c-.23,1.76-2.68,2.9-5.48,2.53s-4.87-2.08-4.65-3.84,2.68-2.9,5.48-2.53,4.88,2.08,4.65,3.84"/><path class="cls-30" d="M370,24.24l-.54,4.16a6.47,6.47,0,0,0,1.64.43c1.91.25,3.7.07,4.42-1.45.19-2.26-3.81-2.95-5.52-3.14"/><path class="cls-26" d="M371.33,28.86a7.47,7.47,0,0,1-2.58-.85c-1.32-.75-2.12-1.86-2-3l-3.5,27-3,23.43,8.91,1.15,6.28-48.37.11-.87c-.69,1.46-2.38,1.68-4.2,1.48"/><path class="cls-31" d="M350.38,34.42a50.31,50.31,0,0,0-1,10.07l-1.86,39.86L343,84.14l2.33-49.95Z"/><path class="cls-31" d="M350.38,34.42c-.08,1.75-3.45,3-7.51,2.82s-7.29-1.76-7.21-3.5,3.44-3,7.5-2.82,7.3,1.76,7.22,3.5"/><path class="cls-32" d="M340.19,32.77,340,36.9a14.93,14.93,0,0,0,2.41.32c2.77.13,5.33-.16,6.15-1.69,0-2.23-5.89-2.67-8.37-2.76"/><path class="cls-33" d="M342.73,37.23a15.07,15.07,0,0,1-3.81-.68c-2-.66-3.32-1.7-3.26-2.81l-1.25,26.75-1.08,23.2,12.95.6,2.24-47.9,0-.86c-.79,1.47-3.18,1.79-5.83,1.7"/><rect class="cls-34" x="323.33" y="60.09" width="55.37" height="38.98" transform="translate(-7.86 52.14) rotate(-8.4)"/><polygon class="cls-35" points="320.78 64.35 319.89 81.33 373.93 73.35 375.53 56 320.78 64.35"/><polygon class="cls-4" points="384.12 42.86 389.48 79.09 381.2 94.48 375.51 55.91 384.12 42.86"/><polygon class="cls-36" points="375.56 56.26 382.49 67.52 391.15 53.94 384.18 43.21 375.56 56.26"/><path class="cls-15" d="M343.56,61s9.91-1.71,14.31,6.18c0,0,11.16-10.69,13.88-10.67L363.27,52l-6.1,2.73Z"/><path class="cls-37" d="M128.94,92.2l-.29.34a1,1,0,0,1,0,.1,2.3,2.3,0,0,0,.25-.44"/><path class="cls-37" d="M124.11,87.24c-2.27-.82-4.79,0-7,1.06a36.36,36.36,0,0,0-8.52,5.75c-2.11,1.91-4.26,4.2-7.1,4.42a37.15,37.15,0,0,1-3.78-.27,3.61,3.61,0,0,0-3.3,1.46c-.71,1.26-.09,2.84.68,4.07a9.47,9.47,0,0,0,4.89,4.21,10.33,10.33,0,0,0,4.29.21c6.59-.82,12.5-4.22,17.46-8.51,3.32-2.88,9.24-9.92,2.35-12.4"/><path class="cls-38" d="M128.81,89.43c0,.15-.07.29-.1.43a.27.27,0,0,0,.08.07,2.68,2.68,0,0,0,0-.5"/><path class="cls-38" d="M122.23,87.25c-2.39.32-4.24,2.22-5.69,4.15a36.15,36.15,0,0,0-4.92,9c-1,2.66-1.85,5.69-4.26,7.19a36.85,36.85,0,0,1-3.48,1.5,3.6,3.6,0,0,0-2.26,2.82c-.05,1.44,1.23,2.56,2.48,3.3a9.48,9.48,0,0,0,6.28,1.49,10.28,10.28,0,0,0,3.9-1.8c5.47-3.76,9.15-9.5,11.57-15.59,1.63-4.09,3.64-13.06-3.62-12.09"/><path class="cls-38" d="M122.68,89.1l-.12.43-.11,0a2.4,2.4,0,0,1,.23-.45"/><path class="cls-38" d="M129.49,90.38c1.94,1.44,2.63,4,3,6.4a35.7,35.7,0,0,1-.07,10.27c-.43,2.82-1.15,5.88.24,8.36.62,1.11,1.59,2,2.31,3a3.57,3.57,0,0,1,.61,3.56c-.65,1.29-2.32,1.65-3.76,1.68a9.5,9.5,0,0,1-6.22-1.74,10.28,10.28,0,0,1-2.54-3.46c-3-5.94-3.4-12.75-2.56-19.25.56-4.36,3.15-13.18,9-8.82"/><path class="cls-38" d="M126.51,92.24l-3.17-2a1.2,1.2,0,0,1-.38-1.65l2.51-4a1.2,1.2,0,0,1,1.64-.39l3.16,2a1.19,1.19,0,0,1,.38,1.64l-2.5,4a1.19,1.19,0,0,1-1.64.38"/></svg>